<svg width="22" height="32" viewBox="0 0 22 32" fill="none" xmlns="http://www.w3.org/2000/svg">
<g clip-path="url(#clip0_3111_5616)">
<path d="M18.7635 23.0905C13.3587 18.9895 13.9594 15.4295 13.8917 13.9663H17.1875C17.5725 13.2547 17.7692 12.5937 17.7692 11.7726L14.0335 9.3242C15.3323 8.38735 16.1785 6.86946 16.1785 5.15157C16.1785 2.98946 14.8394 1.13893 12.9419 0.374723C12.3433 0.132618 8.1104 13.9663 8.1104 13.9663C8.09559 14.2842 8.09136 14.6989 8.09136 15.1979C8.09136 16.5726 11.4844 16.3642 11.3046 17.5768C11.0339 19.3916 10.9767 20.7705 9.40713 25.1326C8.34732 28.0758 1.27982 25.1326 0.774246 26.5768C0.423092 27.5831 0.236938 28.7095 0.236938 29.9221C0.236938 30.0526 0.5204 32 11.0021 32C21.4839 32 21.7673 30.0526 21.7673 29.9221C21.7673 26.9642 20.6567 24.5242 18.7656 23.0905H18.7635Z" fill="#5D9948"/>
<path d="M10.8097 24.9305C11.3935 22.2926 11.9097 19.48 12.2227 17.7937C12.6141 15.6905 9.40928 15.3158 8.09139 15.1221C8.03216 16.9179 7.5287 19.8316 3.23447 23.0884C2.07736 23.9663 1.21428 25.221 0.717163 26.741C1.87639 27.3032 3.42274 27.6379 5.80678 27.6379C7.3362 27.6379 10.1687 27.821 10.8075 24.9284L10.8097 24.9305Z" fill="#81B64C"/>
<path d="M13.0604 13.9663C13.5681 12.6547 13.5025 11.7726 13.5025 11.7726L11.3871 9.32421C13.6379 8.36842 14.9918 6.57053 14.9918 4.48C14.9918 2.80842 14.1921 1.32421 12.9525 0.383158C12.3496 0.138948 11.6896 0.00210571 11 0.00210571C8.14214 0.00210571 5.82368 2.30737 5.82368 5.15368C5.82368 6.87158 6.66983 8.38947 7.96868 9.32632L4.23291 11.7747C4.23291 12.5958 4.42753 13.2568 4.81464 13.9684H13.0625L13.0604 13.9663Z" fill="#81B64C"/>
<path d="M10.7038 1.05052C13.6886 1.51157 9.32879 4.95789 7.95591 4.79578C6.64648 4.63999 7.90725 0.61894 10.7038 1.05052Z" fill="#B2E068"/>
</g>
<defs>
<clipPath id="clip0_3111_5616">
<rect width="22" height="32" fill="white"/>
</clipPath>
</defs>
</svg>
